<svg width="73" height="133" viewBox="0 0 73 133" fill="none" xmlns="http://www.w3.org/2000/svg">
<path d="M44.5 63.5V51" stroke="#1E1E1E" stroke-width="0.4"/>
<path d="M44.5 96.5V84" stroke="#1E1E1E" stroke-width="0.4"/>
<circle cx="44.5" cy="75" r="16.5" fill="#042D0C"/>
<circle cx="44.5" cy="116" r="16.5" fill="#DDAB07"/>
<path d="M42.3106 55.2575C42.4219 54.8123 42.8219 54.5 43.2808 54.5H45.7192C46.1781 54.5 46.5781 54.8123 46.6894 55.2575L47.6894 59.2575C47.8472 59.8886 47.3698 60.5 46.7192 60.5H42.2808C41.6302 60.5 41.1528 59.8886 41.3106 59.2575L42.3106 55.2575Z" fill="#042D0C"/>
<path d="M42.3106 95.2575C42.4219 94.8123 42.8219 94.5 43.2808 94.5H45.7192C46.1781 94.5 46.5781 94.8123 46.6894 95.2575L47.6894 99.2575C47.8472 99.8886 47.3698 100.5 46.7192 100.5H42.2808C41.6302 100.5 41.1528 99.8886 41.3106 99.2575L42.3106 95.2575Z" fill="#DDAB07"/>
<circle cx="44.5" cy="34" r="16.5" fill="#C8111E"/>
<path d="M42.3106 13.2575C42.4219 12.8123 42.8219 12.5 43.2808 12.5H45.7192C46.1781 12.5 46.5781 12.8123 46.6894 13.2575L47.6894 17.2575C47.8472 17.8886 47.3698 18.5 46.7192 18.5H42.2808C41.6302 18.5 41.1528 17.8886 41.3106 17.2575L42.3106 13.2575Z" fill="#C8111E"/>
<path d="M44.5 12.5V0" stroke="#1E1E1E" stroke-width="0.4"/>
<path d="M63.5 17.5H72.5L72 37.5H64L63.5 17.5Z" fill="#C8111E"/>
<path d="M63.5 58.5H72.5L72 78.5H64L63.5 58.5Z" fill="#042D0C"/>
<path d="M63.5 99.5H72.5L72 119.5H64L63.5 99.5Z" fill="#DDAB07"/>
<rect x="64" y="41.5" width="8" height="8" fill="#C8111E"/>
<rect x="64" y="82.5" width="8" height="8" fill="#042D0C"/>
<rect x="64" y="123.5" width="8" height="8" fill="#DDAB07"/>
<rect y="18.5" width="8" height="31" fill="#C8111E"/>
<rect x="17" y="18.5" width="8" height="31" fill="#C8111E"/>
<rect x="4" y="36.5" width="6" height="18" transform="rotate(-90 4 36.5)" fill="#C8111E"/>
<rect y="59.5" width="8" height="31" fill="#042D0C"/>
<rect x="17" y="59.5" width="8" height="31" fill="#042D0C"/>
<rect x="4" y="77.5" width="6" height="18" transform="rotate(-90 4 77.5)" fill="#042D0C"/>
<rect y="100.5" width="8" height="31" fill="#DDAB07"/>
<rect x="17" y="100.5" width="8" height="31" fill="#DDAB07"/>
<rect x="4" y="118.5" width="6" height="18" transform="rotate(-90 4 118.5)" fill="#DDAB07"/>
</svg>
