<svg width="231" height="336" viewBox="0 0 231 336" fill="none" xmlns="http://www.w3.org/2000/svg">
<circle cx="114" cy="15" r="15" fill="#C8111E"/>
<circle cx="165" cy="282" r="15" fill="#DDAB07" fill-opacity="0.9"/>
<circle cx="69" cy="81" r="15" fill="#DDAB07" fill-opacity="0.9"/>
<circle cx="36" cy="255" r="15" fill="#C8111E"/>
<path d="M114 15L171.158 118.5H56.8423L114 15Z" fill="#004C2E" fill-opacity="0.78"/>
<path d="M115.5 51L155.77 118.5H75.2298L115.5 51Z" fill="#062E1E" fill-opacity="0.95"/>
<path d="M115.5 84L168.761 171.75H62.2394L115.5 84Z" fill="#062E1E" fill-opacity="0.95"/>
<path d="M114 120L181.55 230.25H46.45L114 120Z" fill="#062E1E" fill-opacity="0.95"/>
<path d="M114 156L189.344 282H38.6558L114 156Z" fill="#062E1E" fill-opacity="0.95"/>
<path d="M115.5 51L189.545 172.5H41.4548L115.5 51Z" fill="#004C2E" fill-opacity="0.78"/>
<path d="M114 84L202.335 230.25H25.6654L114 84Z" fill="#004C2E" fill-opacity="0.78"/>
<path d="M115.5 120L215.526 282H15.4741L115.5 120Z" fill="#004C2E" fill-opacity="0.78"/>
<path d="M115.5 84L137.584 117.75H93.4164L115.5 84Z" fill="#042D0C"/>
<path d="M114 111L147.775 171.75H80.225L114 111Z" fill="#042D0C"/>
<path d="M115.5 150L160.966 231H70.0337L115.5 150Z" fill="#042D0C"/>
<circle cx="81" cy="186" r="15" fill="#DDAB07" fill-opacity="0.9"/>
<circle cx="135" cy="105" r="15" fill="#C8111E"/>
<circle cx="168" cy="243" r="15" fill="#C8111E"/>
</svg>
